<svg id="Layer_1" data-name="Layer 1" xmlns="http://www.w3.org/2000/svg" viewBox="0 0 1195.35 383.36"><defs><style>.cls-1{fill:#6fb24d;}</style></defs><title>liana-technologies-logo</title><path class="cls-1" d="M104.86,59.76q5.9,27.59,5.89,63.38a320.65,320.65,0,0,1-13.19,90.48A351.06,351.06,0,0,1,60.47,298,337.74,337.74,0,0,1,1,370.17H21.85q74-44.62,107.56-97.87a213.32,213.32,0,0,0,33.57-116,216.18,216.18,0,0,0-16.12-82.9A204.46,204.46,0,0,0,101.37,5H85.86A242.7,242.7,0,0,1,104.86,59.76Zm191.92,310q-14.29-32.88-19.59-59t-5.3-59.16q0-71.12,27.82-133.89T381.64,5.81H361.11Q303.53,43.09,275.7,74.14t-41.93,67.47q-14.11,36.42-14.11,77.9,0,41.67,14.07,77t47.55,73.22Z" transform="translate(-1 -5)"/><path d="M437.17,221.24V5.4h34V215.52q0,15.39,8.85,24.23t23.16,8.86V279Q437.17,279,437.17,221.24Z" transform="translate(-1 -5)"/><path d="M561.51,275.43V112.52H535.22V83.91h60.27V275.43Zm18.6-263.95A20.34,20.34,0,0,1,595,17.65a20.16,20.16,0,0,1,6.17,14.76A20.34,20.34,0,0,1,595,47.34a20.34,20.34,0,0,1-14.93,6.17,20.14,20.14,0,0,1-14.75-6.17,20.31,20.31,0,0,1-6.17-14.93,20.2,20.2,0,0,1,6.08-14.85A20.2,20.2,0,0,1,580.11,11.48Z" transform="translate(-1 -5)"/><path d="M760.25,253.43Q739.85,279,697.83,279q-22.53,0-39.07-16.37T642.22,222q0-29.15,25.48-49.27t65-20.11q10.74,0,24.33,4.65,0-46.5-41.49-46.5-31.83,0-49,17.17L652.23,99.47Q661.89,91.6,679,86a104,104,0,0,1,32.63-5.64q41.67,0,60.54,19T791,159.55v68.67q0,25.22,15,33.62v17q-20.74,0-31-5.9T760.25,253.43ZM757,181.37q-16.1-3.59-22.54-3.58-25.74,0-42,13.23t-16.27,31.3q0,29.87,35.23,29.86,25.74,0,45.6-24.5Z" transform="translate(-1 -5)"/><path d="M964.88,275.43V164q0-30.59-9.21-42.83t-30.85-12.25q-11.62,0-24.32,7T881,133.08V275.43H847V83.91h23.24L881,108.59q16.82-28.26,54.9-28.26,62.94,0,63,76.54V275.43Z" transform="translate(-1 -5)"/><path d="M1150.57,253.43Q1130.19,279,1088.16,279q-22.53,0-39.08-16.37T1032.54,222q0-29.15,25.49-49.27t65-20.11q10.73,0,24.32,4.65,0-46.5-41.49-46.5-31.83,0-49,17.17l-14.3-28.43q9.66-7.87,26.73-13.5a104,104,0,0,1,32.64-5.64q41.67,0,60.53,19t18.87,60.26v68.67q0,25.22,15,33.62v17q-20.74,0-31-5.9T1150.57,253.43Zm-3.22-72.06q-16.1-3.59-22.53-3.58-25.75,0-42,13.23t-16.27,31.3q0,29.87,35.23,29.86,25.76,0,45.6-24.5Z" transform="translate(-1 -5)"/><path d="M455.27,308.6v16.55h10.87v5.14H455.27v27.25c0,1.46.05,2.65.14,3.58a13.34,13.34,0,0,0,.35,2.14,4,4,0,0,0,.54,1.34,1.88,1.88,0,0,0,.72.63,5.54,5.54,0,0,0,1.18.4,8.82,8.82,0,0,0,2,.18,21.08,21.08,0,0,0,2.15-.09,8.84,8.84,0,0,0,1.34-.22,3.4,3.4,0,0,0,.85-.31,2.45,2.45,0,0,0,.72-.81,8.68,8.68,0,0,0,.67-1.39,12.31,12.31,0,0,0,.63-2.46l4.07,2.38A15.36,15.36,0,0,1,470,366a16.06,16.06,0,0,1-.76,1.91,5,5,0,0,1-.94,1.25,7.22,7.22,0,0,1-1.83,1.11,13.35,13.35,0,0,1-2.49.79,17.71,17.71,0,0,1-3.73.33,18.9,18.9,0,0,1-3.92-.36,14.3,14.3,0,0,1-2.86-.87,7.84,7.84,0,0,1-1.88-1.09,5.29,5.29,0,0,1-1-1,12.21,12.21,0,0,1-.65-1.25,13.44,13.44,0,0,1-.74-2.17,25.34,25.34,0,0,1-.6-3.38,41.66,41.66,0,0,1-.25-4.87V330.29H441v-5.14h8V310.74Z" transform="translate(-1 -5)"/><path d="M537.14,358.16a27.87,27.87,0,0,1-.81,3.6,16.74,16.74,0,0,1-.89,2.37,6.44,6.44,0,0,1-.87,1.41l-.7.81a10.65,10.65,0,0,1-1.94,1.74,14.58,14.58,0,0,1-3.07,1.64,22.83,22.83,0,0,1-4.38,1.2,32.32,32.32,0,0,1-5.91.47,33.6,33.6,0,0,1-6.06-.47,22.43,22.43,0,0,1-4.38-1.2,13.06,13.06,0,0,1-3-1.64,13.56,13.56,0,0,1-1.88-1.7,22.07,22.07,0,0,1-1.54-2.17,17.49,17.49,0,0,1-1.65-3.55,30,30,0,0,1-1.3-5.35,47.82,47.82,0,0,1-.52-7.54,45.32,45.32,0,0,1,.54-7.56,31.27,31.27,0,0,1,1.32-5.27,16.61,16.61,0,0,1,1.65-3.47,21.78,21.78,0,0,1,1.59-2.13,12.14,12.14,0,0,1,1.88-1.72,14.57,14.57,0,0,1,3-1.7,22.93,22.93,0,0,1,4.32-1.3,33.91,33.91,0,0,1,12.21.09,20.39,20.39,0,0,1,4.54,1.53,12.66,12.66,0,0,1,3,2,13.7,13.7,0,0,1,1.81,2,13.86,13.86,0,0,1,1.07,1.77,17.47,17.47,0,0,1,1.12,2.75,25.77,25.77,0,0,1,.9,3.94,34.22,34.22,0,0,1,.36,5.28c0,.15,0,.45,0,.91s0,1,0,1.48,0,1,0,1.52,0,.84,0,1H505.24a31,31,0,0,0,.85,8.05,19.36,19.36,0,0,0,1.88,4.79,7.56,7.56,0,0,0,2.77,2.86,6.55,6.55,0,0,0,1.75.72,19.63,19.63,0,0,0,2.46.49,26.72,26.72,0,0,0,3.8.22,28.91,28.91,0,0,0,3.87-.22,17.6,17.6,0,0,0,2.75-.56,11.18,11.18,0,0,0,1.81-.67,8.52,8.52,0,0,0,1.1-.6,5.76,5.76,0,0,0,2-2.48,22.41,22.41,0,0,0,1.34-4.86ZM520.23,343.8h6.89l3.53.27a43.89,43.89,0,0,0-.58-5.37,23.85,23.85,0,0,0-.92-3.62,8.74,8.74,0,0,0-1.07-2.19,5,5,0,0,0-1.05-1.12,13.92,13.92,0,0,0-3.09-1.41,17.87,17.87,0,0,0-5.72-.74,23.43,23.43,0,0,0-3.94.29,15.64,15.64,0,0,0-2.82.74,9.59,9.59,0,0,0-1.9.94,6.19,6.19,0,0,0-1.14.94,9.41,9.41,0,0,0-.9,1.23,10.43,10.43,0,0,0-.94,2.13,26.39,26.39,0,0,0-.8,3.26,31.29,31.29,0,0,0-.45,4.65Z" transform="translate(-1 -5)"/><path d="M607,358.34a25.34,25.34,0,0,1-.6,3.51,12.33,12.33,0,0,1-.9,2.49,8.63,8.63,0,0,1-1,1.67,12.91,12.91,0,0,1-1,1.1,12.3,12.3,0,0,1-1.59,1.27,12.67,12.67,0,0,1-2.77,1.41,23.85,23.85,0,0,1-4.16,1.14,30.55,30.55,0,0,1-5.8.47,30,30,0,0,1-6.17-.56,25.81,25.81,0,0,1-4.67-1.38,15.37,15.37,0,0,1-3.29-1.79,12.53,12.53,0,0,1-2-1.77,15.12,15.12,0,0,1-1.55-2.15,15.91,15.91,0,0,1-1.52-3.49,33.65,33.65,0,0,1-1.16-5.23,49.35,49.35,0,0,1-.47-7.43,47.74,47.74,0,0,1,.47-7.29,31.31,31.31,0,0,1,1.18-5.14,16.27,16.27,0,0,1,1.55-3.42,16.06,16.06,0,0,1,1.54-2.13,14.09,14.09,0,0,1,2-1.76,16.07,16.07,0,0,1,3.29-1.82,26.07,26.07,0,0,1,4.68-1.41,30.67,30.67,0,0,1,6.17-.55,28.32,28.32,0,0,1,5.66.49,24.36,24.36,0,0,1,4.07,1.16,12.87,12.87,0,0,1,2.7,1.41,13.57,13.57,0,0,1,1.57,1.27,11.9,11.9,0,0,1,1,1.12,10.31,10.31,0,0,1,1,1.7,16.85,16.85,0,0,1,.92,2.51,20.55,20.55,0,0,1,.64,3.58l-5.63,1.56q-.27-1.61-.54-2.7a16.1,16.1,0,0,0-.54-1.82,6.16,6.16,0,0,0-.53-1.14c-.18-.28-.35-.51-.49-.69a7.32,7.32,0,0,0-1.21-1,8.9,8.9,0,0,0-1.95-.92,17.66,17.66,0,0,0-2.86-.66,25.3,25.3,0,0,0-4-.27,27.8,27.8,0,0,0-4.67.33,16.74,16.74,0,0,0-3.18.85,8.32,8.32,0,0,0-2,1.14,7.55,7.55,0,0,0-1.2,1.21,9.65,9.65,0,0,0-.92,1.5,11.37,11.37,0,0,0-.85,2.53,33.55,33.55,0,0,0-.63,4.14q-.24,2.52-.24,6.33a64.74,64.74,0,0,0,.27,6.52,31.21,31.21,0,0,0,.67,4.26,10.77,10.77,0,0,0,.89,2.57,8.86,8.86,0,0,0,1,1.5,5.94,5.94,0,0,0,1.23,1.23,8.83,8.83,0,0,0,2.08,1.12,16,16,0,0,0,3.19.82,29,29,0,0,0,4.63.31,26.19,26.19,0,0,0,4-.26,16.38,16.38,0,0,0,2.91-.7,8.43,8.43,0,0,0,2-.94,8.66,8.66,0,0,0,1.25-1,3.87,3.87,0,0,0,.54-.7,6.93,6.93,0,0,0,.53-1.14,17.62,17.62,0,0,0,.56-1.81c.19-.73.38-1.63.56-2.7Z" transform="translate(-1 -5)"/><path d="M639.31,305.91h6.85v24.87a14.92,14.92,0,0,1,2.21-2.43,14.69,14.69,0,0,1,3.18-2.13,19.39,19.39,0,0,1,4.29-1.52,24.28,24.28,0,0,1,5.62-.58,26.82,26.82,0,0,1,5.23.45,21.28,21.28,0,0,1,3.78,1.07A11.71,11.71,0,0,1,673,327a10.35,10.35,0,0,1,1.46,1.26,10.48,10.48,0,0,1,1.16,1.67,11.06,11.06,0,0,1,1,2.87,36.92,36.92,0,0,1,.74,4.78c.19,2,.29,4.42.29,7.41v25.4h-6.89V342.82a41,41,0,0,0-.2-4.43,18.4,18.4,0,0,0-.51-2.82,8.17,8.17,0,0,0-.63-1.63c-.21-.37-.37-.68-.49-.92a5.66,5.66,0,0,0-.9-1.12,5.73,5.73,0,0,0-1.65-1,13.34,13.34,0,0,0-2.78-.78,24.2,24.2,0,0,0-4.29-.31,26.72,26.72,0,0,0-4.65.35,16.78,16.78,0,0,0-3.25.9,7.31,7.31,0,0,0-2.08,1.21,6.64,6.64,0,0,0-1.16,1.29,10,10,0,0,0-.6,1.06,8.9,8.9,0,0,0-.65,1.83,23.07,23.07,0,0,0-.54,3,39.11,39.11,0,0,0-.22,4.61v26.34h-6.85Z" transform="translate(-1 -5)"/><path d="M748,329.76a12.27,12.27,0,0,1,1.3,3,35.26,35.26,0,0,1,.92,4.4,47.21,47.21,0,0,1,.42,6.92v26.25h-6.89v-27.6a35.21,35.21,0,0,0-.22-4.4,22.94,22.94,0,0,0-.51-2.8,7.11,7.11,0,0,0-.63-1.63l-.51-.87a8.17,8.17,0,0,0-1-1.14,5,5,0,0,0-1.65-1.08,13.15,13.15,0,0,0-2.68-.78,21.63,21.63,0,0,0-4-.31,27.68,27.68,0,0,0-4.76.35,16,16,0,0,0-3.27.92,7.27,7.27,0,0,0-2.06,1.23,6.83,6.83,0,0,0-1.14,1.3,8.84,8.84,0,0,0-.76,1.54,12.5,12.5,0,0,0-.62,2.37,32.36,32.36,0,0,0-.43,3.51q-.15,2.07-.15,5v24.38h-6.9V325.15h5.69l.53,6.62a19.63,19.63,0,0,1,2.11-2.5,14.81,14.81,0,0,1,3.22-2.49,19.61,19.61,0,0,1,4.56-1.9,22.3,22.3,0,0,1,6.17-.76,20.49,20.49,0,0,1,6.56.89,16.77,16.77,0,0,1,4,1.93A8.76,8.76,0,0,1,748,329.76Z" transform="translate(-1 -5)"/><path d="M804,324.12a31,31,0,0,1,6.19.56,25.35,25.35,0,0,1,4.7,1.39,17.12,17.12,0,0,1,3.31,1.76,14.14,14.14,0,0,1,2,1.7,16,16,0,0,1,1.55,2.13,16.83,16.83,0,0,1,1.54,3.42,30.93,30.93,0,0,1,1.19,5.17,49.73,49.73,0,0,1,.47,7.35,51.28,51.28,0,0,1-.47,7.43,32.78,32.78,0,0,1-1.19,5.3,17.67,17.67,0,0,1-1.54,3.54,14.2,14.2,0,0,1-1.55,2.16,12.07,12.07,0,0,1-2,1.75,15.39,15.39,0,0,1-3.29,1.75,26.8,26.8,0,0,1-4.69,1.34,33.09,33.09,0,0,1-6.24.53,32.43,32.43,0,0,1-6.18-.53,24.6,24.6,0,0,1-4.65-1.37,16.08,16.08,0,0,1-3.24-1.76,12.68,12.68,0,0,1-2-1.75,14.89,14.89,0,0,1-1.55-2.17,17.85,17.85,0,0,1-1.54-3.51,32.51,32.51,0,0,1-1.19-5.23,59,59,0,0,1,0-14.7,33.78,33.78,0,0,1,1.17-5.21,15.7,15.7,0,0,1,1.52-3.47,16.12,16.12,0,0,1,1.54-2.12,12.62,12.62,0,0,1,2-1.75,16.5,16.5,0,0,1,3.28-1.76,25.34,25.34,0,0,1,4.66-1.39A30.28,30.28,0,0,1,804,324.12Zm0,5.59a29.91,29.91,0,0,0-4.59.31,16,16,0,0,0-3.2.83,9.67,9.67,0,0,0-2.1,1.12,6,6,0,0,0-1.25,1.19,8.65,8.65,0,0,0-.92,1.52,11.89,11.89,0,0,0-.85,2.61,36.81,36.81,0,0,0-.63,4.25c-.16,1.72-.24,3.84-.24,6.38s.08,4.55.24,6.22a33.42,33.42,0,0,0,.65,4.16,13.61,13.61,0,0,0,.87,2.61,7.91,7.91,0,0,0,.92,1.5,7.14,7.14,0,0,0,1.28,1.14,9.27,9.27,0,0,0,2.17,1.12,16.2,16.2,0,0,0,3.29.83,29.41,29.41,0,0,0,4.63.31,26.85,26.85,0,0,0,4.53-.33,18.15,18.15,0,0,0,3.2-.83,7.58,7.58,0,0,0,2.08-1.12,7.07,7.07,0,0,0,1.23-1.21,8.65,8.65,0,0,0,.92-1.52,11.85,11.85,0,0,0,.85-2.59,35.91,35.91,0,0,0,.63-4.16q.24-2.51.24-6.22a64.9,64.9,0,0,0-.26-6.49,29.85,29.85,0,0,0-.7-4.27,12.76,12.76,0,0,0-.91-2.62,6,6,0,0,0-2.24-2.59,8.45,8.45,0,0,0-2.13-1.05,18.26,18.26,0,0,0-3.22-.79A29.09,29.09,0,0,0,804,329.71Z" transform="translate(-1 -5)"/><path d="M858.38,305.91h6.85v64.46h-6.85Z" transform="translate(-1 -5)"/><path d="M919.4,324.12a30.9,30.9,0,0,1,6.19.56,25.12,25.12,0,0,1,4.7,1.39,17.12,17.12,0,0,1,3.31,1.76,14.89,14.89,0,0,1,2,1.7,17,17,0,0,1,1.54,2.13,16.83,16.83,0,0,1,1.54,3.42,30,30,0,0,1,1.19,5.17,49.73,49.73,0,0,1,.47,7.35,51.28,51.28,0,0,1-.47,7.43,31.75,31.75,0,0,1-1.19,5.3,17.67,17.67,0,0,1-1.54,3.54,15,15,0,0,1-1.54,2.16,12.62,12.62,0,0,1-2,1.75,15.54,15.54,0,0,1-3.28,1.75,27.18,27.18,0,0,1-4.7,1.34,33.09,33.09,0,0,1-6.24.53,32.43,32.43,0,0,1-6.18-.53,24.83,24.83,0,0,1-4.65-1.37,16.08,16.08,0,0,1-3.24-1.76,12.68,12.68,0,0,1-2-1.75,14.92,14.92,0,0,1-1.54-2.17,17.25,17.25,0,0,1-1.55-3.51,31.56,31.56,0,0,1-1.18-5.23,57.71,57.71,0,0,1,0-14.7,33.88,33.88,0,0,1,1.16-5.21,15.7,15.7,0,0,1,1.52-3.47,15.22,15.22,0,0,1,1.55-2.12,12.07,12.07,0,0,1,2-1.75,16.33,16.33,0,0,1,3.29-1.76,25,25,0,0,1,4.65-1.39A30.28,30.28,0,0,1,919.4,324.12Zm0,5.59a29.91,29.91,0,0,0-4.59.31,16,16,0,0,0-3.2.83,9.67,9.67,0,0,0-2.1,1.12,6.55,6.55,0,0,0-1.25,1.19,9.3,9.3,0,0,0-.92,1.52,12.45,12.45,0,0,0-.85,2.61,35,35,0,0,0-.62,4.25c-.17,1.72-.25,3.84-.25,6.38s.08,4.55.25,6.22a30,30,0,0,0,.65,4.16,12.34,12.34,0,0,0,.87,2.61,7,7,0,0,0,.92,1.5,6.71,6.71,0,0,0,1.27,1.14,9.27,9.27,0,0,0,2.17,1.12,16.2,16.2,0,0,0,3.29.83,29.41,29.41,0,0,0,4.63.31,27.06,27.06,0,0,0,4.54-.33,18.63,18.63,0,0,0,3.2-.83,7.89,7.89,0,0,0,2.08-1.12,7.45,7.45,0,0,0,1.23-1.21,9.34,9.34,0,0,0,.91-1.52,11.34,11.34,0,0,0,.85-2.59,32,32,0,0,0,.63-4.16c.16-1.67.25-3.74.25-6.22s-.1-4.76-.27-6.49a29.85,29.85,0,0,0-.7-4.27,12.76,12.76,0,0,0-.91-2.62,9,9,0,0,0-.94-1.47,8.14,8.14,0,0,0-3.42-2.17,18.62,18.62,0,0,0-3.23-.79A29.09,29.09,0,0,0,919.4,329.71Z" transform="translate(-1 -5)"/><path d="M1004.39,363.66a16.63,16.63,0,0,1-2.19,2.85,12.47,12.47,0,0,1-3,2.3,16.15,16.15,0,0,1-4.13,1.54,24.81,24.81,0,0,1-5.6.56,25.34,25.34,0,0,1-5.63-.56A19.06,19.06,0,0,1,979.7,369a12.15,12.15,0,0,1-2.77-1.78,11.33,11.33,0,0,1-1.66-1.77,13.63,13.63,0,0,1-1.27-2.08,17.07,17.07,0,0,1-1.21-3.33,36.41,36.41,0,0,1-.92-5.06,64.5,64.5,0,0,1-.35-7.24,69.67,69.67,0,0,1,.35-7.57,35.58,35.58,0,0,1,.94-5.16,17.44,17.44,0,0,1,1.23-3.31,13.72,13.72,0,0,1,1.28-2,10.86,10.86,0,0,1,1.7-1.76,12.34,12.34,0,0,1,2.86-1.79,19.85,19.85,0,0,1,4.16-1.39,25.56,25.56,0,0,1,5.68-.56,20.23,20.23,0,0,1,6.69,1,18.15,18.15,0,0,1,4.5,2.26,11.93,11.93,0,0,1,2.77,2.71c.65.94,1.16,1.69,1.52,2.26l.85-7.16h5.28V367.6a35.88,35.88,0,0,1-.52,6.58,26.8,26.8,0,0,1-1.25,4.69A14.7,14.7,0,0,1,1008,382a13.72,13.72,0,0,1-1.46,1.81,16.3,16.3,0,0,1-1.83,1.44,15,15,0,0,1-3,1.5,25.87,25.87,0,0,1-4.34,1.16,32.71,32.71,0,0,1-5.88.47A35.91,35.91,0,0,1,986,388a29.89,29.89,0,0,1-4-.9,16.75,16.75,0,0,1-2.71-1,13.88,13.88,0,0,1-1.48-.82,6.63,6.63,0,0,1-1.07-.88,8,8,0,0,1-1.23-1.56,12.53,12.53,0,0,1-1.12-2.37,13.54,13.54,0,0,1-.69-3.34l3.89-2.1a27.6,27.6,0,0,0,1.61,3.11,15.74,15.74,0,0,0,1.25,1.77,4,4,0,0,0,1.17,1,6,6,0,0,0,1.92,1,21.83,21.83,0,0,0,3,.67,31.84,31.84,0,0,0,5,.31,23.9,23.9,0,0,0,4.11-.31,19.83,19.83,0,0,0,3.11-.78,9.6,9.6,0,0,0,2.15-1,5.05,5.05,0,0,0,1.23-1.1c.18-.23.41-.57.69-1a7.49,7.49,0,0,0,.81-2,22.92,22.92,0,0,0,.64-3.42,39.27,39.27,0,0,0,.23-5.37Zm-13.1-34a25.89,25.89,0,0,0-4.39.32,13.68,13.68,0,0,0-3,.8,7.19,7.19,0,0,0-1.86,1.07,7.81,7.81,0,0,0-1.07,1.12,9.22,9.22,0,0,0-.83,1.43,12.58,12.58,0,0,0-.78,2.51,36.47,36.47,0,0,0-.61,4.09q-.24,2.49-.24,6.24t.22,6.31a30.9,30.9,0,0,0,.61,4.21,15,15,0,0,0,.8,2.61,10.19,10.19,0,0,0,.83,1.55,7.51,7.51,0,0,0,1.07,1.18,6.2,6.2,0,0,0,1.88,1.07,15.57,15.57,0,0,0,3,.79,26.61,26.61,0,0,0,4.45.31,28.75,28.75,0,0,0,4.43-.29,14.3,14.3,0,0,0,3-.76,6.55,6.55,0,0,0,3-2.17,10.85,10.85,0,0,0,.87-1.43,11.06,11.06,0,0,0,.87-2.46,28.27,28.27,0,0,0,.67-4,54.56,54.56,0,0,0,.28-6c0-2.51-.1-4.67-.28-6.49a37.73,37.73,0,0,0-.67-4.56,13.52,13.52,0,0,0-.89-2.89,6.4,6.4,0,0,0-.94-1.54,12.52,12.52,0,0,0-1.21-1,7.26,7.26,0,0,0-1.9-1,16,16,0,0,0-3-.74A28,28,0,0,0,991.29,329.62Z" transform="translate(-1 -5)"/><path d="M1046.45,370.37V325.15h6.88v45.22ZM1054,312a4.17,4.17,0,1,1-4.17-4.17A4.17,4.17,0,0,1,1054,312Z" transform="translate(-1 -5)"/><path d="M1125.27,358.16a27.87,27.87,0,0,1-.81,3.6,16.74,16.74,0,0,1-.89,2.37,6.44,6.44,0,0,1-.87,1.41l-.7.81a10.32,10.32,0,0,1-1.94,1.74,14.58,14.58,0,0,1-3.07,1.64,22.83,22.83,0,0,1-4.38,1.2,32.28,32.28,0,0,1-5.9.47,33.64,33.64,0,0,1-6.07-.47,22.43,22.43,0,0,1-4.38-1.2,12.77,12.77,0,0,1-3-1.64,13.13,13.13,0,0,1-1.89-1.7,22.07,22.07,0,0,1-1.54-2.17,17.49,17.49,0,0,1-1.65-3.55,30.86,30.86,0,0,1-1.3-5.35,47.82,47.82,0,0,1-.52-7.54,45.32,45.32,0,0,1,.54-7.56,31.27,31.27,0,0,1,1.32-5.27,16.1,16.1,0,0,1,1.66-3.47,19,19,0,0,1,1.59-2.13,11.57,11.57,0,0,1,1.87-1.72,14.83,14.83,0,0,1,3-1.7,22.93,22.93,0,0,1,4.32-1.3,33.91,33.91,0,0,1,12.21.09,20.39,20.39,0,0,1,4.54,1.53,12.66,12.66,0,0,1,3,2,13.7,13.7,0,0,1,1.81,2,15,15,0,0,1,1.08,1.77,17.53,17.53,0,0,1,1.11,2.75,25.77,25.77,0,0,1,.9,3.94,34.22,34.22,0,0,1,.36,5.28c0,.15,0,.45,0,.91s0,1,0,1.48,0,1,0,1.52,0,.84,0,1h-32.26a31.44,31.44,0,0,0,.85,8.05,19.76,19.76,0,0,0,1.88,4.79,7.5,7.5,0,0,0,2.78,2.86,6.46,6.46,0,0,0,1.74.72,20,20,0,0,0,2.46.49,26.82,26.82,0,0,0,3.8.22,28.91,28.91,0,0,0,3.87-.22,18,18,0,0,0,2.76-.56,12,12,0,0,0,1.81-.67,9,9,0,0,0,1.09-.6,5.76,5.76,0,0,0,2-2.48,21.85,21.85,0,0,0,1.34-4.86Zm-16.91-14.36h6.89l3.53.27a43.89,43.89,0,0,0-.58-5.37,23.85,23.85,0,0,0-.92-3.62,8.74,8.74,0,0,0-1.07-2.19,5,5,0,0,0-1-1.12,13.92,13.92,0,0,0-3.09-1.41,17.87,17.87,0,0,0-5.72-.74,23.43,23.43,0,0,0-3.94.29,15.87,15.87,0,0,0-2.82.74,9.59,9.59,0,0,0-1.9.94,6.19,6.19,0,0,0-1.14.94,8.61,8.61,0,0,0-.89,1.23,9.44,9.44,0,0,0-.94,2.13,24.57,24.57,0,0,0-.81,3.26,31.29,31.29,0,0,0-.45,4.65Z" transform="translate(-1 -5)"/><path d="M1156,360.18l5.59-2.33a14,14,0,0,0,1.39,4.16,6.82,6.82,0,0,0,2.3,2.51,8.93,8.93,0,0,0,3.36,1.2,29,29,0,0,0,4.58.31,18.29,18.29,0,0,0,6-.91,8.81,8.81,0,0,0,1.83-.83,6.28,6.28,0,0,0,1.08-.8,4.87,4.87,0,0,0,1-1.68,8.13,8.13,0,0,0,.49-3,8.6,8.6,0,0,0-.46-3.07,4.64,4.64,0,0,0-1.53-2,9.45,9.45,0,0,0-2.7-1.36c-1.11-.37-2.43-.75-4-1.14q-4.12-1.12-7.48-2.17a23.9,23.9,0,0,1-5.72-2.57,10.88,10.88,0,0,1-3.65-3.78,11.81,11.81,0,0,1-1.27-5.84,12.61,12.61,0,0,1,.31-2.93,12.44,12.44,0,0,1,.79-2.35,9.16,9.16,0,0,1,1-1.77,12.71,12.71,0,0,1,1-1.18,14.17,14.17,0,0,1,1.7-1.37,15.07,15.07,0,0,1,2.77-1.47,23.72,23.72,0,0,1,3.87-1.19,27,27,0,0,1,12.75.61,13.58,13.58,0,0,1,4.68,2.7,9,9,0,0,1,2.35,3.42,15.61,15.61,0,0,1,.82,3.29l-5.23,2.33a11.42,11.42,0,0,0-1.54-4,6.88,6.88,0,0,0-2.37-2.21,8.29,8.29,0,0,0-3.05-.92,33.87,33.87,0,0,0-3.6-.18,18,18,0,0,0-5.54.83,7.79,7.79,0,0,0-2.73,1.45,5.18,5.18,0,0,0-1,1.43,6.61,6.61,0,0,0-.51,2.87,9.55,9.55,0,0,0,.49,2.75,4.21,4.21,0,0,0,1.41,1.88,9.62,9.62,0,0,0,2.73,1.38c1.15.41,2.65.83,4.49,1.28,1.11.33,2.32.66,3.63,1s2.63.72,4,1.17a27.65,27.65,0,0,1,3.84,1.63,13.16,13.16,0,0,1,3.29,2.39,11,11,0,0,1,2.31,3.45,12,12,0,0,1,.87,4.78,15.61,15.61,0,0,1-.31,3.16,13.86,13.86,0,0,1-.81,2.59,9.86,9.86,0,0,1-1.12,2,8.29,8.29,0,0,1-1.25,1.39q-.58.5-1.65,1.23a15.83,15.83,0,0,1-2.76,1.45,21.23,21.23,0,0,1-4,1.21,27.31,27.31,0,0,1-5.51.49,28.76,28.76,0,0,1-7.67-.85,13.16,13.16,0,0,1-4.88-2.37,10.27,10.27,0,0,1-2.81-3.55A21.35,21.35,0,0,1,1156,360.18Z" transform="translate(-1 -5)"/></svg>